<?xml version="1.0" encoding="UTF-8"?>
<svg viewBox="0 0 567.25 566.62494" xmlns="http://www.w3.org/2000/svg">
 <path d="m422.31 283.38a139 139 0 1 0 -278 0 139 139 0 1 0 278 0" fill="#fff"/>
 <path transform="translate(-87.804 -46.193)" d="m370.43 46.255c-4.7816 46.118-6.9893 94.255-12.875 139.34-3.4514-53.032-26.442-47.306-21.906-63.5 12.576-41.543-25.117-24.407-17.406-69.531-19.814 46.905 14.596 37.878 3.2812 58.969-24.856 39.088 20.372 37.298 8.4375 79.406l-66.031-124.31 39.719 134.38c-24.752-47.492-43.541-32.817-45.969-49.5-5.3534-43.073-32.841-12.126-44.094-56.5 0.91139 50.91 28.695 28.726 26.906 52.594-6.8784 45.883 33.87 25.774 39.938 69.375-0.64029 0.51625-1.275 1.0356-1.9062 1.5625l-108.88-88.625 90.719 106.69c-0.14726 0.17514-0.29105 0.35541-0.4375 0.53125-40.575-34.517-52.451-13.998-60.938-28.531-21.099-37.931-34.975 1.0526-62.031-35.875 19.917 46.862 37.342 15.888 44.625 38.688 10.751 44.871 40.728 11.588 62.656 48.75-0.47747 0.87007-0.94628 1.7442-1.4062 2.625l-133.56-41.219 123.78 64.781c-0.04816 0.15383-0.07734 0.3147-0.125 0.46875-50.257-16.441-53.566 6.9552-66.875-3.2812-33.846-27.174-32.016 14.154-71-9.8438 36.118 35.891 40.594 0.62998 55.938 19 26.852 37.467 42.059-4.5533 76.312 21.438-0.10822 1.018-0.1943 2.0383-0.28125 3.0625l-139.16 12.188 139.22 13.281c0.02441 0.27154 0.06784 0.54139 0.09375 0.8125-53.119 3.1317-47.513 26.193-63.688 21.562-41.47-12.814-24.545 24.939-69.625 16.969 46.79 20.084 37.943-14.342 58.969-2.9062 39.022 25.131 37.453-20.336 79.75-7.9062 0.23188 0.77167 0.47438 1.5463 0.71875 2.3125l-125.69 62.937 132.25-38.25c-43.522 23.543-30.09 41.526-46.375 43.781-43.109 5.0573-12.331 32.771-56.781 43.719 50.915-0.5616 28.895-28.484 52.75-26.531 45.488 7.1391 26.321-33.095 68.688-39.344 0.65704 0.82081 1.3256 1.6314 2 2.4375l-88.844 107.62 106.81-89.625c0.19149 0.1611 0.37016 0.34 0.5625 0.5-34.569 40.503-14.078 52.415-28.625 60.875-37.968 21.034 1.0053 35.007-35.969 62 46.896-19.836 15.938-37.319 38.75-44.562 44.9-10.677 11.664-40.758 48.906-62.625l-38.875 134.94c10.999-12.542 56.664-126.2 66.312-123.41-16.201 50.191 7.1226 53.387-3.0625 66.719-27.065 33.933 14.278 31.97-9.5938 71.031 35.774-36.234 0.4922-40.567 18.812-55.969 37.35-26.951-4.6229-42.065 21.125-76.344l15.75 139.34c5.266-45.921 6.9336-94.976 13.781-139.34 3.8118 52.263 26.546 46.579 22.094 62.719-12.414 41.592 25.191 24.314 17.656 69.469 19.631-46.982-14.732-37.834-3.5-58.969 24.577-38.983-20.037-37.262-8.9062-78.75l66.688 123.41-37.875-126.34c22.079 39.067 39.193 27.104 41.219 42.906 4.6202 43.158 32.628 12.691 43.125 57.25-0.0458-50.918-28.194-29.229-26-53.063 7.6451-45.686-33.287-26.418-38.719-69.844l109.25 88.719c-29.14-36.387-60.875-72.399-88.812-108.84 40.305 35.068 52.407 14.616 60.75 29.25 20.707 38.147 35.014-0.7049 61.688 36.5-19.432-47.065-37.203-16.251-44.25-39.125-10.325-45.141-40.817-11.784-62.375-49.812l134.78 40.406c-40.779-22.559-83.932-43.772-123.56-66.844 51.147 16.795 54.294-6.8991 67.719 3.3438 33.951 27.043 31.954-14.316 71.031 9.5312-36.256-35.751-40.586-0.47075-56-18.781-27.175-37.609-42.256 5.2797-77.094-21.656l140.09-15.25-139.84-12.781c-0.00271-0.031 0.00272-0.06275 0-0.09375 53.354-3.3489 47.591-26.43 63.812-21.875 41.535 12.603 24.412-25.084 69.531-17.344-11.723-4.9613-19.951-6.5376-26.031-6.2812-18.241 0.76902-17.125 17.996-32.938 9.5-39.126-24.916-37.314 20.451-79.594 8.3125l124.53-65.875c-44.912 12.132-91.347 28.927-135.44 38.938 48.346-24.501 33.641-43.542 50.406-45.844 43.115-5.0046 12.411-32.732 56.875-43.625-50.916 0.49941-28.96 28.45-52.812 26.469-45.947-7.2686-25.961 33.863-70.062 39.406l88.312-110.09-107.84 90.25c-0.03368-0.02821-0.06005-0.06557-0.09375-0.09375 35.296-41.452 14.289-53.312 28.875-61.938 37.814-21.309-1.2458-34.989 35.531-62.25-46.75 20.176-15.679 37.435-38.438 44.844-45.159 11.086-10.809 41.283-49.25 63.469l38.688-135.72c-9.8384 12.247-57.694 126.86-65.312 124.41 16.329-50.791-7.2265-53.888 2.9375-67.312 26.917-34.051-14.421-31.897 9.2812-71.063-35.617 36.389-0.3093 40.581-18.562 56.063-37.34 27.192 5.0337 42.086-21.031 76.688l-16.094-139.53zm0.6875 144.38c76.7-2e-5 138.94 62.238 138.94 138.94s-62.238 138.94-138.94 138.94-138.97-62.238-138.97-138.94 62.269-138.94 138.97-138.94zm-21.594 23.469 16.594 14.656v16.438h-27.5l-14.438-16.062-0.125 42.781 14.656-16.781h27.281l0.125 80.938h-16.062v-34.906c0-3.6258 5.4153-6.0937 9-6.0938h3.875v-4.0938h-40.844v4.1562h4.7812c3.5761 1e-5 8.1875 2.9928 8.1875 7.0938v74.844c0 3.3641-3.0141 6.9686-7.9375 6.9688h-5.0938v4.2812h40.969v-4.2812h-4.7188c-4.4254-3e-5 -8.1875-3.1582-8.1875-6.5312l-0.03125-35.531 16.062 0.03125v1l4.5312 29.812 5.4062-29.688v-1.0938l18.031 0.0625v35.594c2e-5 3.01-3.6234 6.3438-8.0312 6.3438h-6v4.0625h40.969v-3.9375h-4.7812c-5.4583-3e-5 -9.2188-3.1622-9.2188-7.3125l0.0625-73.812c2e-5 -2.828 3.766-7.7217 10.594-7.9375h3.5312v-4l-41.156 0.0625v3.9375h3.5c5.4413-0.04339 10.457 4.7203 10.594 8.0625v32.906h-18.094v-80.969h28.031l14 18.125v-44.656l-13.219 16.781h-28.75v-16.25l16.969-15h-43.562zm131.56 74.875c-0.60278 4.21-1.7594 6.7439-3.375 7.9375-49.303-26.308-71.501 27.798-25.375 48.25 66.035 26.754-18.114 66.134-21.562 10.938h-3.8125v34h4.3125c-0.33398-3.3671 2.3796-6.6961 2.5-6.875 54.57 22.404 78.55-26.306 30.562-50.312-63.597-28.038 13.093-64.299 16.75-9h4v-34.938h-4zm-217.25 2v4.1562h4.7812c3.5761 1e-5 8.1875 2.9928 8.1875 7.0938v74.844c0 3.3641-3.0141 6.9686-7.9375 6.9688h-5.0938v4.2812h40.969v-4.2812h-4.7188c-4.4254-3e-5 -8.1875-3.1582-8.1875-6.5312l-0.03125-76.344c0-3.6258 5.4153-6.0937 9-6.0938h3.875v-4.0938h-40.844zm106.22 112.78c-0.56513-0.00157-1.1439 0.01396-1.7188 0.03125-2.7594 0.08287-5.6168 0.38815-8.6562 1.0312-1.2516 3.2369-0.5794 5.0428 0 6.9062 2.8981 0.9088 5.3845 2.3392 6.875 5.125l4.25 30.062 4.4062-30.594c1.2403-2.0028 1.8055-4.2075 6.1875-5.3125 1.1058-4.274 0.169-4.4631 0-6.1875-3.6677-0.59195-7.3878-1.0515-11.344-1.0625zm-42.844 17.219c-4.2573 5.294-8.2324 11.013-10.75 18.906 2.1944 2.6885 4.0624 2.9882 5.9688 3.4063 2.223-2.0695 4.7166-3.5509 7.875-3.4688l28.219 11.188-24.406-18.969c-1.1273-2.0683-2.7378-3.6449-1.5312-8-3.168-3.0748-3.7926-2.3566-5.375-3.0625zm87.531 0.4375c-3.4362 0.48597-4.687 1.929-6.0312 3.3438 0.62012 2.9733 0.61115 5.8714-1.0938 8.5312l-24.188 18.375 28.875-11.062c2.3532 0.1061 4.523-0.474 7.625 2.8125 4.2705-1.1192 3.9832-2.0427 5.4062-3.0313-2.3262-6.3828-5.1434-12.729-10.594-18.969z" stroke="#000" stroke-width=".06123"/>
</svg>
