<?xml version="1.0" encoding="UTF-8"?>
<svg preserveAspectRatio="xMidYMid" version="1.1" viewBox="0 0 256 180" xmlns="http://www.w3.org/2000/svg">
 <defs>
  <linearGradient id="a" x1="49.98%" x2="49.98%" y1="8.6805e-7%" y2="100.03%">
   <stop stop-color="#E52D27" offset="0"/>
   <stop stop-color="#BF171D" offset="1"/>
  </linearGradient>
 </defs>
 <path d="m101.6 123.2l69.2-35.8-69.2-36.1v71.9z" fill="#fff"/>
 <path d="m101.6 51.3l60.7 40.5 8.5-4.4-69.2-36.1z" fill="#420000" opacity=".12"/>
 <path d="m253.3 38.8s-2.499-17.6-10.196-25.4c-9.6962-10.2-20.592-10.2-25.69-10.8-35.686-2.6-89.365-2.6-89.365-2.6h-0.09996s-53.679 0-89.565 2.6c-4.998 0.6-15.894 0.6-25.69 10.8-7.597 7.8-10.096 25.4-10.096 25.4s-2.599 20.8-2.599 41.5v19.4c0 20.7 2.599 41.4 2.599 41.4s2.499 17.6 10.196 25.4c9.6962 10.2 22.491 9.9 28.189 10.9 20.492 2 86.966 2.6 86.966 2.6s53.779-0.1 89.565-2.7c4.998-0.6 15.894-0.6 25.69-10.8 7.697-7.8 10.196-25.4 10.196-25.4s2.599-20.7 2.599-41.4v-19.4c-0.099961-20.7-2.6989-41.5-2.6989-41.5zm-151.74 84.4v-71.9l69.173 36.1-69.173 35.8z" fill="url(#a)"/>
</svg>
